<?xml version="1.0" encoding="UTF-8"?>
<svg width="18px" height="13px" viewBox="0 0 18 13" version="1.1" xmlns="http://www.w3.org/2000/svg" xmlns:xlink="http://www.w3.org/1999/xlink">
    <g id="Symbols" stroke="none" stroke-width="1" fill="none" fill-rule="evenodd">
        <g id="FormField/Checkbox/Checked" transform="translate(-7.000000, -10.000000)" fill="#FFFFFF" fill-rule="nonzero">
            <path d="M22.328125,10.1679688 C22.3984379,10.0976559 22.4921869,10.0625 22.609375,10.0625 C22.7265631,10.0625 22.8320308,10.0976559 22.9257812,10.1679688 L23.9101562,11.1875 C24.0039067,11.2578129 24.0507812,11.3515619 24.0507812,11.46875 C24.0507812,11.5859381 24.0039067,11.6914058 23.9101562,11.7851562 L13.3632812,22.3320312 C13.2929684,22.4023441 13.1992193,22.4375 13.0820312,22.4375 C12.9648432,22.4375 12.8593755,22.4023441 12.765625,22.3320312 L8.08984375,17.6210938 C7.99609328,17.5507809 7.94921875,17.4570318 7.94921875,17.3398438 C7.94921875,17.2226557 7.99609328,17.117188 8.08984375,17.0234375 L9.07421875,16.0390625 C9.16796922,15.945312 9.27343691,15.8984375 9.390625,15.8984375 C9.50781309,15.8984375 9.60156215,15.945312 9.671875,16.0390625 L13.0820312,19.4492188 L22.328125,10.1679688 Z" id=""></path>
        </g>
    </g>
</svg>